#!OML:ASF X:\für Bonn\!DataBase\2005_08_11_Bastian_Final\c3d\Bastian.ASF
:FULLY-SPECIFIED
:DEGREES
46
root -1.90373 17.2024 6.06674 151 -17.9045 -173.525
lowerback 30.2794 -6.14854 -1.03672
upperback 12.8021 -11.9851 2.52043
thorax -0.991754 -7.77748 6.89677
lowerneck -12.7765 -4.35864 -3.04992
upperneck -1.84389 -5.15399 8.46107
head 1.99338 -2.11934 3.0277
rclavicle 2.64384e-014 -2.74323e-014
rhumerus -45.0022 35.0579 -100.853
rradius 38.7241
rwrist -33.0726
rhand -36.0565 -0.412206
rfingers 7.12502
rthumb -9.16429 -30.1931
lclavicle 2.64384e-014 -2.74323e-014
lhumerus 42.074 -20.5886 76.8077
lradius 99.5921
lwrist -11.4206
lhand -54.9581 -13.1882
lfingers 7.12502
lthumb -27.3401 14.849
rfemur -55.004 0.130934 28.6293
rtibia 112.624
rfoot 7.64322 -14.0509
rtoes -5.71724
lfemur 18.3831 -5.14272 -18.7916
ltibia 24.2161
lfoot -7.75757 -4.74802
ltoes 4.62472
47
root -1.91629 17.1951 6.07549 150.521 -17.9183 -173.23
lowerback 30.8814 -6.30635 -0.861728
upperback 12.8931 -12.2484 2.60216
thorax -1.12338 -7.95255 7.05761
lowerneck -12.7613 -4.23283 -2.99313
upperneck -1.81261 -4.99837 8.4076
head 1.98716 -2.04575 3.00892
rclavicle -2.09718e-014 -3.26007e-014
rhumerus -44.8456 35.3601 -100.729
rradius 38.8444
rwrist -32.7561
rhand -36.0134 -0.315629
rfingers 7.12502
rthumb -9.12274 -30.0983
lclavicle -2.09718e-014 -3.26007e-014
lhumerus 43.0288 -20.1881 76.5476
lradius 100.097
lwrist -11.8012
lhand -55.149 -13.4114
lfingers 7.12502
lthumb -27.5226 14.5969
rfemur -56.7314 -0.0803784 29.4255
rtibia 114.224
rfoot 7.45993 -13.933
rtoes -5.54885
lfemur 18.7209 -5.24194 -18.6045
ltibia 24.3231
lfoot -7.7965 -4.7713
ltoes 4.78853
48
root -1.929 17.1861 6.08451 150.023 -17.9643 -172.958
lowerback 31.5244 -6.46205 -0.688661
upperback 12.9845 -12.5109 2.67698
thorax -1.26998 -8.12843 7.22292
lowerneck -12.7691 -4.13539 -2.97871
upperneck -1.7971 -4.87248 8.38098
head 1.98445 -1.98494 3.0052
rclavicle 2.44505e-014 -3.97569e-014
rhumerus -44.6642 35.6995 -100.614
rradius 38.9501
rwrist -32.5162
rhand -35.9936 -0.162822
rfingers 7.12502
rthumb -9.1036 -29.9464
lclavicle 2.44505e-014 -3.97569e-014
lhumerus 43.9982 -19.8115 76.2807
lradius 100.563
lwrist -12.2044
lhand -55.3703 -13.5907
lfingers 7.12502
lthumb -27.7342 14.3838
rfemur -58.4325 -0.325134 30.2053
rtibia 115.868
rfoot 7.18808 -13.7809
rtoes -5.88925
lfemur 18.6531 -5.38907 -18.4734
ltibia 25.3685
lfoot -8.31726 -4.88372
ltoes 5.07963
49
root -1.94131 17.1755 6.09291 149.531 -18.0221 -172.692
lowerback 32.4941 -6.62011 -0.472235
upperback 12.8245 -12.7832 3.02057
thorax -1.57147 -8.3032 7.18589
lowerneck -12.8179 -4.04367 -2.95298
upperneck -1.77356 -4.75435 8.35131
head 1.99184 -1.92634 2.99754
rclavicle 2.8625e-014 -6.52014e-014
rhumerus -44.4393 35.9639 -100.451
rradius 39.0165
rwrist -32.2536
rhand -35.9434 0.0383427
rfingers 7.12502
rthumb -9.05514 -29.7473
lclavicle 2.8625e-014 -6.52014e-014
lhumerus 44.9926 -19.4486 76.0646
lradius 100.971
lwrist -12.6273
lhand -55.5886 -13.7732
lfingers 7.12502
lthumb -27.943 14.1675
rfemur -60.157 -0.557782 30.9871
rtibia 117.466
rfoot 6.99955 -13.6032
rtoes -6.21527
lfemur 18.5803 -5.48789 -18.3243
ltibia 26.4183
lfoot -8.85211 -5.0482
ltoes 5.2314
50
root -1.96092 17.0358 6.08053 149.038 -18.0598 -172.394
lowerback 33.1542 -6.77666 -0.24725
upperback 12.867 -13.0185 3.12623
thorax -1.74952 -8.46105 7.33528
lowerneck -12.802 -3.96669 -2.93275
upperneck -1.80416 -4.65192 8.29991
head 1.96968 -1.87875 2.98259
rclavicle 6.65929e-015 5.1684e-015
rhumerus -44.2929 36.272 -100.331
rradius 39.0999
rwrist -32.0371
rhand -35.9602 0.287567
rfingers 7.12502
rthumb -9.07145 -29.4974
lclavicle 6.65929e-015 5.1684e-015
lhumerus 45.8813 -19.109 76.0182
lradius 101.266
lwrist -13.1358
lhand -55.8189 -14.1151
lfingers 7.12502
lthumb -28.1632 13.7895
rfemur -63.0852 -0.607811 31.8834
rtibia 119.781
rfoot 7.29155 -13.5798
rtoes -6.47226
lfemur 18.3956 -5.57306 -18.1658
ltibia 27.6894
lfoot -9.49027 -5.22906
ltoes 5.51209
51
root -1.97441 17.0224 6.08777 148.529 -18.1347 -172.128
lowerback 33.8464 -6.92902 -0.0541537
upperback 12.9191 -13.2618 3.21643
thorax -1.92082 -8.62682 7.49252
lowerneck -12.8172 -3.89102 -2.92023
upperneck -1.83491 -4.54837 8.29187
head 1.9551 -1.82735 2.98396
rclavicle -6.55989e-015 -2.14687e-014
rhumerus -44.1136 36.6317 -100.229
rradius 39.1729
rwrist -31.8572
rhand -35.9535 0.480274
rfingers 7.12502
rthumb -9.06493 -29.3049
lclavicle -6.55989e-015 -2.14687e-014
lhumerus 46.711 -18.8047 76.0398
lradius 101.453
lwrist -13.6932
lhand -56.1039 -14.5896
lfingers 7.12502
lthumb -28.4355 13.2698
rfemur -64.8542 -0.749358 32.6578
rtibia 121.273
rfoot 7.19417 -13.4458
rtoes -6.77509
lfemur 18.3362 -5.65854 -18.0168
ltibia 28.7458
lfoot -10.0127 -5.42102
ltoes 5.63178
52
root -1.98731 17.006 6.09403 148.03 -18.2064 -171.873
lowerback 34.5439 -7.07079 0.147008
upperback 12.951 -13.4775 3.30436
thorax -2.11576 -8.77414 7.64201
lowerneck -12.8208 -3.8353 -2.89135
upperneck -1.87338 -4.47336 8.25443
head 1.93584 -1.79172 2.97024
rclavicle 1.17681e-013 -7.23576e-014
rhumerus -43.9657 36.9385 -100.13
rradius 39.2526
rwrist -31.6992
rhand -36.0021 0.687858
rfingers 7.12502
rthumb -9.11185 -29.0953
lclavicle 1.17681e-013 -7.23576e-014
lhumerus 47.4802 -18.5502 75.9893
lradius 101.681
lwrist -14.1111
lhand -56.44 -15.1224
lfingers 7.12502
lthumb -28.7566 12.6829
rfemur -66.6563 -0.853599 33.4192
rtibia 122.724
rfoot 7.13357 -13.3548
rtoes -7.00356
lfemur 18.2893 -5.76548 -17.8845
ltibia 29.7835
lfoot -10.5554 -5.61675
ltoes 6.04391
53
root -2.00069 16.9896 6.09952 147.521 -18.2714 -171.591
lowerback 35.2331 -7.22038 0.365316
upperback 12.9856 -13.7011 3.41308
thorax -2.29612 -8.92943 7.80698
lowerneck -12.8346 -3.77597 -2.91708
upperneck -1.93113 -4.38368 8.24457
head 1.91409 -1.74731 2.97713
rclavicle -5.89397e-014 7.55382e-014
rhumerus -43.8104 37.3275 -100.022
rradius 39.3519
rwrist -31.6222
rhand -36.0383 0.868034
rfingers 7.12502
rthumb -9.14676 -28.9136
lclavicle -5.89397e-014 7.55382e-014
lhumerus 48.2345 -18.2978 75.8854
lradius 101.936
lwrist -14.5692
lhand -56.8431 -15.4975
lfingers 7.12502
lthumb -29.1416 12.2418
rfemur -68.5046 -0.915054 34.2024
rtibia 124.06
rfoot 7.24437 -13.2854
rtoes -7.77521
lfemur 18.5799 -5.87394 -17.7278
ltibia 30.0785
lfoot -10.6784 -5.73045
ltoes 6.13701
54
root -2.01331 16.9728 6.10453 147.017 -18.3688 -171.345
lowerback 35.9111 -7.33434 0.52081
upperback 13.0218 -13.9 3.55298
thorax -2.45152 -9.07936 8.02684
lowerneck -12.8445 -3.7441 -2.98766
upperneck -2.0307 -4.32058 8.21404
head 1.87991 -1.71708 2.98345
rclavicle -1.28017e-013 8.94531e-014
rhumerus -43.6499 37.7232 -99.8569
rradius 39.4714
rwrist -31.5297
rhand -36.0836 0.943203
rfingers 7.12502
rthumb -9.19052 -28.8365
lclavicle -1.28017e-013 8.94531e-014
lhumerus 48.9699 -18.0839 75.803
lradius 102.29
lwrist -14.9033
lhand -57.1995 -15.8954
lfingers 7.12502
lthumb -29.4819 11.7844
rfemur -70.4105 -0.978723 34.9269
rtibia 125.367
rfoot 7.46241 -13.1942
rtoes -8.54194
lfemur 18.866 -5.9778 -17.6142
ltibia 30.3887
lfoot -10.8175 -5.85172
ltoes 6.30285
55
root -2.02611 16.9584 6.10974 146.535 -18.448 -171.093
lowerback 36.5415 -7.43697 0.681166
upperback 13.0493 -14.0776 3.71727
thorax -2.59288 -9.21921 8.25874
lowerneck -12.8213 -3.71317 -3.0883
upperneck -2.13776 -4.25602 8.16586
head 1.83752 -1.68816 2.98952
rclavicle -8.24956e-014 2.22639e-014
rhumerus -43.484 38.0854 -99.6284
rradius 39.5901
rwrist -31.4039
rhand -36.0909 1.03644
rfingers 7.12502
rthumb -9.19754 -28.743
lclavicle -8.24956e-014 2.22639e-014
lhumerus 49.6843 -17.8947 75.7424
lradius 102.69
lwrist -15.2359
lhand -57.5322 -16.1554
lfingers 7.12502
lthumb -29.7995 11.468
rfemur -72.339 -0.973419 35.6615
rtibia 126.601
rfoot 7.72679 -13.0822
rtoes -9.35126
lfemur 19.1084 -6.05958 -17.4756
ltibia 30.7276
lfoot -10.9572 -5.97374
ltoes 6.47148
56
root -2.03909 16.9393 6.11398 146.02 -18.5307 -170.841
lowerback 37.1564 -7.51296 0.83378
upperback 13.0976 -14.2338 3.90066
thorax -2.69821 -9.3568 8.5027
lowerneck -12.7317 -3.70127 -3.26039
upperneck -2.33045 -4.20097 8.15137
head 1.75881 -1.66431 3.02008
rclavicle -2.38542e-014 2.90226e-014
rhumerus -43.2891 38.4153 -99.3259
rradius 39.7562
rwrist -31.307
rhand -36.056 1.08001
rfingers 7.12502
rthumb -9.16387 -28.7009
lclavicle -2.38542e-014 2.90226e-014
lhumerus 50.4017 -17.7253 75.6876
lradius 103.12
lwrist -15.5206
lhand -57.8371 -16.3239
lfingers 7.12502
lthumb -30.0905 11.2469
rfemur -74.2436 -0.955009 36.3615
rtibia 127.785
rfoot 7.98139 -12.9907
rtoes -9.72562
lfemur 19.399 -6.15917 -17.3541
ltibia 31.0479
lfoot -11.1213 -6.09876
ltoes 6.49414
